<?xml version="1.0" standalone="no"?>
<!DOCTYPE svg PUBLIC "-//W3C//DTD SVG 20010904//EN"
 "http://www.w3.org/TR/2001/REC-SVG-20010904/DTD/svg10.dtd">
<svg version="1.0" xmlns="http://www.w3.org/2000/svg"
 width="900.000000pt" height="360.000000pt" viewBox="0 0 900.000000 360.000000"
 preserveAspectRatio="xMidYMid meet">

<g transform="translate(0.000000,360.000000) scale(0.100000,-0.100000)"
fill="#000000" stroke="none">
<path d="M0 2255 l0 -1345 418 2 417 3 3 43 c3 41 2 42 -27 42 -26 0 -31 4
-31 25 0 14 3 25 8 25 4 0 15 15 25 32 14 27 24 33 54 36 28 2 34 -1 26 -9
-16 -16 16 -99 44 -112 12 -5 41 -7 65 -3 41 6 43 8 43 42 0 33 3 37 40 50 22
8 60 14 85 13 65 -2 67 -1 74 24 3 13 15 36 27 51 26 33 67 32 91 -4 16 -23
18 -23 18 -5 0 12 21 38 50 62 28 23 46 44 40 48 -5 3 -10 1 -10 -4 0 -6 -5
-11 -12 -11 -6 0 -20 -8 -30 -17 -14 -13 -23 -14 -35 -7 -18 11 -26 41 -13 49
5 3 7 -3 5 -15 -2 -11 0 -22 6 -25 5 -4 9 4 10 17 0 15 17 37 45 60 24 20 39
40 34 43 -6 3 -10 1 -10 -6 0 -7 -3 -9 -6 -6 -4 3 -18 -3 -32 -13 -14 -11 -26
-19 -28 -18 -1 2 1 22 5 45 5 23 6 45 3 48 -3 3 -35 5 -71 5 -208 1 -417 45
-409 87 12 60 272 106 608 107 307 1 470 -20 509 -67 10 -13 9 -19 -8 -34 -17
-14 -21 -30 -23 -88 l-2 -70 -3 68 c-4 60 -6 68 -21 62 -46 -18 -198 -45 -285
-51 -54 -4 -99 -10 -101 -13 -4 -7 21 -253 29 -296 6 -28 9 -30 52 -29 27 0
48 6 53 15 46 80 54 88 82 85 17 -2 36 -13 45 -27 10 -13 25 -30 35 -37 14
-10 16 -17 8 -27 -8 -9 -5 -26 9 -61 l19 -49 74 3 c61 2 77 -1 90 -15 23 -27
29 -64 16 -106 -10 -32 -9 -40 5 -54 15 -15 20 -13 64 23 l48 39 -35 5 c-24 3
-35 11 -36 23 -1 12 -1 13 3 2 3 -10 17 -15 39 -15 19 0 34 -4 34 -9 0 -6 -25
-31 -55 -58 -40 -35 -55 -55 -55 -74 0 -32 -9 -42 -27 -27 -7 6 -16 9 -19 6
-9 -10 18 -98 31 -98 7 0 18 -7 26 -16 12 -14 0 -15 -120 -13 -73 2 -135 7
-137 11 -3 5 -17 -1 -31 -12 -27 -21 -59 -26 -65 -10 -2 5 -96 12 -228 15
-123 4 -227 8 -229 11 -2 2 18 4 45 5 47 1 48 1 15 9 -19 5 -47 6 -63 4 -47
-5 -30 20 27 42 18 7 17 8 -7 12 -35 4 -38 36 -6 69 16 17 18 23 7 24 -28 3
-44 -3 -55 -17 -6 -8 -19 -12 -27 -8 -25 9 0 54 35 61 23 4 28 11 28 34 l0 29
-70 0 c-40 0 -70 4 -70 10 0 6 30 10 70 10 54 0 70 3 70 14 0 10 -13 16 -37
18 -27 2 -39 8 -43 23 -6 25 -45 32 -54 10 -4 -12 -10 -14 -25 -5 -11 5 -27
10 -36 10 -14 0 -15 -2 -2 -15 15 -14 12 -50 -8 -98 -4 -10 -2 -28 4 -41 18
-32 10 -90 -11 -94 -14 -3 -18 4 -18 32 0 27 -3 34 -15 30 -8 -4 -15 -17 -15
-30 0 -14 -7 -27 -15 -31 -24 -9 -29 3 -15 36 10 26 9 32 -9 50 -12 12 -21 25
-21 30 0 13 -58 -4 -80 -24 -9 -8 -22 -15 -28 -15 -7 0 -12 -9 -12 -20 0 -16
-26 -40 -44 -40 -15 0 -3 56 16 77 l21 23 -25 0 c-14 0 -28 -7 -32 -15 -8 -21
-36 -19 -36 3 0 23 19 42 45 44 50 4 -324 15 -562 17 l-263 1 0 -450 0 -450
4500 0 4500 0 0 394 0 393 -72 7 c-40 3 -352 11 -693 17 -341 5 -629 12 -640
14 -11 2 -62 4 -112 4 -86 1 -93 2 -93 21 0 16 -7 20 -30 20 -16 0 -30 5 -30
10 0 6 25 10 55 10 30 0 55 -4 55 -10 0 -13 27 -13 32 0 4 13 98 30 168 30 55
0 57 1 79 40 28 50 36 52 16 3 -8 -20 -13 -39 -9 -42 3 -3 107 -7 230 -9 l224
-3 0 -25 c0 -33 34 -29 38 4 3 22 7 23 65 20 56 -3 62 -5 65 -25 2 -13 10 -23
18 -23 8 0 14 10 14 23 l0 22 310 -3 310 -4 0 1356 0 1356 -4500 0 -4500 0 0
-1345z m6207 1213 c-3 -8 -6 -5 -6 6 -1 11 2 17 5 13 3 -3 4 -12 1 -19z m-42
-18 c0 -22 -29 -18 -33 3 -3 14 1 18 15 15 10 -2 18 -10 18 -18z m70 -75 c9
19 9 19 16 -5 4 -14 7 -50 7 -80 -1 -30 -3 -45 -5 -32 -8 38 -19 24 -30 -35
-9 -52 -10 -42 -10 87 0 89 3 126 7 95 5 -41 8 -46 15 -30z m-435 14 c-87 -36
-97 -42 -51 -34 29 5 32 4 22 -9 -10 -12 -9 -14 9 -9 11 3 23 9 26 14 3 5 13
9 22 9 27 -1 -50 -39 -79 -40 -15 0 -29 7 -33 15 -10 27 -24 16 -24 -19 0 -74
-28 -116 -77 -116 -34 0 -52 15 -72 59 -8 18 -12 21 -12 9 -2 -29 -41 -48
-102 -48 -35 0 -74 -8 -104 -21 -25 -11 -49 -19 -51 -16 -11 10 330 152 541
225 66 23 55 9 -15 -19z m-1940 -69 c0 -5 -4 -10 -10 -10 -5 0 -10 5 -10 10 0
6 5 10 10 10 6 0 10 -4 10 -10z m2145 -80 c0 -29 -4 -49 -10 -47 -13 4 -18 42
-11 73 10 40 21 27 21 -26z m-45 -5 c0 -13 3 -31 7 -41 4 -11 2 -15 -8 -12 -7
2 -13 15 -14 29 0 13 -4 24 -10 24 -5 0 -9 -15 -9 -32 1 -21 -3 -33 -12 -33
-7 0 -11 6 -8 13 3 8 0 25 -5 39 -12 31 -11 32 28 35 27 2 31 -1 31 -22z m207
9 c8 -21 -13 -42 -28 -27 -13 13 -5 43 11 43 6 0 13 -7 17 -16z m-282 -45 c-2
-40 -23 -53 -52 -34 -20 13 -22 13 -17 0 5 -11 -1 -15 -24 -15 -17 0 -32 6
-35 13 -2 6 -2 2 0 -10 2 -15 -2 -23 -11 -23 -8 0 -18 -5 -22 -12 -5 -8 -2 -9
11 -4 23 8 35 -9 35 -51 0 -24 4 -31 18 -28 28 4 35 -6 17 -25 -11 -12 -13
-20 -6 -25 6 -3 11 -1 11 4 0 6 5 11 10 11 6 0 10 -9 10 -20 0 -19 -8 -23 -40
-21 -10 0 -11 -1 -2 -5 6 -3 12 -9 12 -13 0 -11 -51 -33 -59 -25 -3 4 0 9 7
11 6 3 12 12 12 21 0 14 -1 14 -12 1 -25 -29 -73 -53 -114 -54 -22 -1 -49 -7
-59 -13 -16 -9 -17 -14 -7 -36 9 -21 9 -26 -2 -26 -14 0 -26 30 -26 68 0 12
-4 22 -10 22 -5 0 -7 6 -4 14 8 20 53 29 70 15 12 -10 13 -9 8 5 -3 9 -12 16
-20 16 -19 0 -18 19 3 42 15 17 15 18 -2 18 -18 0 -18 1 1 16 15 12 16 15 2
10 -9 -3 -19 0 -22 7 -3 8 -9 7 -19 -5 -8 -10 -21 -18 -30 -18 -16 0 -37 47
-30 68 7 19 23 14 23 -7 0 -27 19 -37 27 -15 4 11 2 19 -6 22 -9 3 -9 7 0 18
17 21 26 17 33 -12 6 -21 9 -24 21 -14 14 11 19 7 16 -12 0 -5 4 -8 9 -8 16 0
12 15 -10 35 -33 30 -23 54 27 69 19 6 22 4 17 -11 -5 -13 -1 -11 11 5 10 13
26 22 38 21 12 0 24 0 27 1 3 1 12 3 20 5 8 1 27 6 43 10 19 5 27 3 27 -6 0
-8 5 -5 12 6 29 54 66 50 63 -6z m-3205 -19 c0 -5 -4 -10 -10 -10 -5 0 -10 5
-10 10 0 6 5 10 10 10 6 0 10 -4 10 -10z m4400 -20 c0 -5 -4 -10 -10 -10 -5 0
-10 5 -10 10 0 6 5 10 10 10 6 0 10 -4 10 -10z m-1860 -65 c0 -8 -4 -15 -10
-15 -5 0 -10 7 -10 15 0 8 5 15 10 15 6 0 10 -7 10 -15z m174 -106 c4 -10 2
-19 -7 -22 -10 -4 -17 9 -26 49 -15 67 -2 97 15 34 6 -25 15 -52 18 -61z m86
69 c0 -17 -10 -27 -40 -40 l-40 -17 0 29 c0 22 6 31 28 38 42 16 52 14 52 -10z
m667 -34 c8 -21 -13 -42 -28 -27 -13 13 -5 43 11 43 6 0 13 -7 17 -16z m-927
-79 c0 -8 -4 -15 -10 -15 -5 0 -10 7 -10 15 0 8 5 15 10 15 6 0 10 -7 10 -15z
m1357 -171 c-3 -3 -12 -4 -19 -1 -8 3 -5 6 6 6 11 1 17 -2 13 -5z m-1345 -19
c0 -5 -5 -11 -11 -13 -6 -2 -11 4 -11 13 0 9 5 15 11 13 6 -2 11 -8 11 -13z
m1465 -21 c26 -15 66 -39 88 -55 29 -20 56 -28 97 -31 31 -3 55 -1 52 3 -2 4
-32 26 -67 48 -34 23 -58 41 -54 41 11 0 85 -48 139 -91 l47 -37 -65 4 c-39 2
-64 0 -62 -6 7 -20 84 -120 92 -120 5 0 18 8 29 18 19 17 20 16 14 -13 -3 -16
-9 -41 -12 -55 -10 -40 12 -57 77 -62 l58 -5 -41 76 c-22 42 -49 85 -58 96
-10 11 -21 27 -25 35 -4 8 8 -2 27 -23 19 -20 52 -73 73 -116 31 -63 45 -81
66 -86 15 -3 32 -13 39 -21 9 -12 7 -14 -16 -14 -26 0 -27 -2 -21 -32 3 -18
11 -35 17 -39 6 -3 12 -35 13 -70 6 -171 3 -157 41 -176 l34 -18 -94 3 -94 4
-7 -37 c-8 -45 -3 -50 46 -46 28 2 47 -4 70 -20 26 -20 34 -21 50 -11 18 11
20 10 20 -11 0 -13 -10 -39 -23 -58 -22 -32 -26 -34 -86 -36 -44 -1 -64 3 -67
12 -8 19 -34 7 -34 -15 0 -9 -9 -43 -20 -75 -11 -32 -20 -60 -20 -62 0 -1 21
-3 46 -3 30 0 43 -4 38 -11 -3 -6 -24 -9 -45 -7 -21 2 -36 2 -34 0 2 -2 -5
-12 -16 -23 -11 -11 -19 -33 -19 -54 0 -34 1 -35 38 -35 31 0 43 6 60 30 28
37 42 38 41 3 0 -24 -2 -25 -8 -9 -12 30 -24 2 -27 -59 -4 -90 -26 -127 -38
-65 -3 16 -8 43 -11 58 -4 19 -12 28 -26 29 -17 2 -19 -2 -13 -35 4 -20 11
-45 15 -54 12 -22 11 -31 -1 -23 -6 4 -20 24 -31 47 -15 30 -19 50 -14 81 l6
42 -29 -50 c-16 -28 -51 -74 -77 -103 -26 -29 -46 -54 -44 -56 2 -2 23 -6 46
-9 35 -4 47 0 80 26 l38 31 -34 -37 c-34 -36 -37 -37 -103 -37 -55 0 -72 -4
-88 -20 -11 -11 -20 -18 -20 -15 0 3 -9 1 -20 -5 -35 -19 -22 -4 23 25 141 94
251 280 297 505 41 196 10 439 -76 614 -79 159 -161 248 -288 311 -38 19 -61
35 -53 35 9 0 38 -12 64 -26z m-181 1 c-4 -24 -16 -30 -16 -7 0 12 4 22 9 22
5 0 8 -7 7 -15z m-49 -37 c-3 -8 -6 -5 -6 6 -1 11 2 17 5 13 3 -3 4 -12 1 -19z
m-1104 -5 c-7 -2 -19 -2 -25 0 -7 3 -2 5 12 5 14 0 19 -2 13 -5z m877 3 c0 -2
-12 -11 -27 -20 l-28 -17 24 20 c23 21 31 25 31 17z m-940 -22 c0 -2 -7 -4
-15 -4 -8 0 -15 4 -15 10 0 5 7 7 15 4 8 -4 15 -8 15 -10z m419 -373 l-29 -44
0 130 c0 122 18 267 37 296 4 6 11 -67 14 -163 l6 -175 -28 -44z m-471 366
c-7 -8 -25 -19 -38 -26 -23 -12 -22 -11 4 13 30 26 59 37 34 13z m922 -22
c-11 -13 -7 -15 29 -16 47 -2 46 -2 84 -17 30 -13 37 -26 10 -18 -33 9 -122
16 -138 10 -9 -4 -15 -19 -15 -39 0 -33 1 -33 38 -28 27 4 42 1 51 -11 16 -19
42 -21 59 -4 21 21 14 -20 -10 -63 -18 -33 -27 -39 -55 -39 -19 0 -33 5 -34
13 0 10 -2 10 -6 0 -7 -19 -20 -16 -45 9 -12 12 -23 17 -25 11 -2 -5 -11 -19
-19 -29 -13 -16 -13 -15 1 13 8 18 15 46 15 63 0 16 5 30 10 30 6 0 10 14 10
30 0 17 -4 30 -9 30 -19 0 -151 -206 -151 -234 0 -14 78 10 93 28 l18 21 -10
-21 c-10 -20 -7 -22 22 -28 19 -3 42 -13 53 -21 18 -13 16 -14 -18 -15 -31 0
-38 -4 -38 -20 0 -11 12 -26 28 -34 16 -8 35 -23 43 -33 13 -16 13 -17 -3 -4
-16 12 -18 11 -18 -2 0 -9 -11 -29 -25 -46 -21 -24 -35 -31 -73 -33 l-47 -3
-7 -50 c-10 -68 -6 -75 45 -75 36 0 43 -3 44 -20 1 -16 -4 -20 -28 -20 -26 0
-30 -3 -27 -22 2 -15 11 -24 26 -26 38 -6 24 -67 -24 -104 -21 -17 -24 -58 -3
-58 5 0 75 29 156 65 81 36 152 65 158 64 5 0 3 -3 -5 -6 -8 -4 -75 -35 -148
-70 -73 -34 -137 -63 -141 -63 -5 0 -11 -7 -15 -15 -4 -10 6 -17 32 -25 62
-17 71 -27 28 -35 -27 -6 -36 -11 -32 -22 3 -8 6 -19 6 -24 0 -5 10 -9 21 -9
18 0 21 -4 16 -28 -4 -21 3 -39 30 -76 43 -60 30 -73 154 152 50 89 92 162 95
162 8 0 -49 -119 -76 -155 -4 -5 -19 -30 -32 -55 -14 -25 -34 -60 -44 -78 -19
-32 -19 -33 0 -47 17 -13 18 -15 3 -15 -9 0 -17 5 -17 10 0 19 -17 10 -28 -14
-10 -22 -7 -28 23 -55 38 -33 42 -41 22 -41 -9 0 -11 -12 -9 -40 3 -24 0 -40
-7 -40 -18 0 -138 119 -171 170 -23 36 -36 48 -51 45 -40 -8 -107 92 -71 107
5 2 12 15 16 31 5 23 3 27 -16 27 -21 1 -21 2 -6 13 15 12 15 19 -4 92 -69
265 38 652 230 830 39 37 53 45 32 20z m130 11 c0 -2 -8 -10 -17 -17 -16 -13
-17 -12 -4 4 13 16 21 21 21 13z m220 -15 c0 -10 7 -38 15 -61 14 -39 14 -41
-2 -29 -18 15 -43 70 -43 94 0 8 7 15 15 15 8 0 15 -8 15 -19z m85 -38 c-4
-32 -9 -60 -11 -62 -11 -11 -25 20 -31 67 -6 52 -6 52 22 52 l27 0 -7 -57z
m-2357 25 c15 -15 16 -60 1 -75 -8 -8 -2 -16 22 -28 19 -10 60 -35 91 -56 32
-21 64 -36 71 -33 18 7 27 -35 27 -127 0 -66 1 -68 37 -98 31 -26 39 -28 46
-16 6 11 -4 34 -32 76 -48 72 -52 109 -16 144 40 41 95 31 95 -16 0 -26 -2
-28 -19 -17 -15 9 -23 9 -35 -1 -23 -19 -20 -31 15 -79 35 -47 47 -108 29
-142 -10 -19 -9 -24 9 -37 12 -8 18 -19 15 -25 -4 -7 -2 -8 4 -4 6 3 66 -35
134 -86 68 -51 151 -111 185 -132 34 -22 59 -44 56 -49 -3 -6 -1 -7 5 -3 7 4
168 -83 200 -109 2 -1 -4 -5 -13 -9 -10 -4 -14 -2 -9 5 4 7 0 9 -14 5 -11 -4
-23 -2 -27 3 -4 7 1 8 11 4 12 -4 15 -3 10 6 -5 7 -17 10 -28 8 -24 -7 -90 31
-81 46 3 6 1 7 -5 3 -14 -8 -108 61 -104 76 1 5 -2 7 -8 3 -9 -5 -103 62 -227
163 -24 19 -43 32 -43 29 0 -3 44 -42 98 -87 55 -46 97 -89 97 -99 0 -10 14
-30 30 -45 27 -25 25 -24 -17 5 -26 17 -45 36 -42 41 3 5 1 7 -4 6 -12 -3
-141 102 -226 184 -32 31 -69 59 -82 62 -15 4 -24 14 -24 25 0 27 -24 33 -38
10 -13 -21 -18 -13 127 -209 126 -170 226 -290 242 -290 4 0 5 9 2 20 -3 11 0
20 6 20 6 0 11 -9 11 -20 0 -11 4 -20 10 -20 5 0 14 -10 21 -21 7 -13 7 -19 1
-15 -6 3 -13 2 -17 -4 -3 -5 4 -12 17 -15 71 -16 120 -24 181 -30 37 -4 67 -9
67 -11 0 -17 -123 -652 -129 -664 -4 -8 -7 -39 -7 -68 1 -40 -1 -47 -8 -30 -5
13 -17 41 -28 63 l-18 40 4 -43 c3 -41 3 -42 -15 -26 -18 16 -19 13 -16 -120
1 -75 1 -139 -1 -140 -2 -2 -17 3 -33 11 -36 18 -59 53 -159 243 -42 80 -99
188 -127 240 -28 52 -97 183 -153 290 -57 107 -112 206 -122 219 l-18 24 0
-37 c0 -90 148 -771 205 -941 24 -71 47 -138 50 -148 7 -16 -9 -17 -237 -17
l-245 0 28 110 c64 246 163 781 176 948 5 67 3 82 -8 82 -18 0 -18 1 -155
-266 -148 -290 -382 -740 -402 -776 -9 -16 -22 -28 -29 -28 -11 0 -12 33 -9
157 3 93 2 141 -3 118 -8 -39 -8 -39 -10 -7 -2 45 -15 40 -31 -10 -16 -55 -25
-32 -11 30 10 45 23 147 14 109 -2 -9 -9 -17 -14 -17 -5 0 -10 -15 -10 -32 -1
-38 -14 38 -58 342 -48 326 -56 370 -70 370 -10 0 -66 -122 -122 -263 -29 -73
-45 -103 -51 -95 -6 9 -7 5 -3 -9 4 -13 -2 -37 -15 -60 l-21 -38 7 35 c6 33 5
34 -10 15 -15 -20 -15 -20 -17 5 -1 20 -3 18 -9 -10 -4 -19 -8 -27 -9 -17 -1
13 -10 17 -46 17 -33 0 -45 4 -45 15 0 27 -20 16 -21 -12 -1 -22 -2 -24 -7 -8
l-5 20 -8 -20 c-4 -12 -8 24 -8 88 -1 59 -5 107 -10 107 -5 0 -11 -4 -13 -10
-2 -6 -15 -4 -32 5 -16 9 -30 14 -31 13 -1 -2 -11 -16 -23 -32 -20 -26 -22
-26 -22 -8 0 11 5 24 10 27 6 3 10 14 9 23 0 14 -2 13 -8 -3 -6 -15 -9 -11
-14 20 -4 22 -7 61 -7 86 0 29 -6 51 -15 59 -8 7 -15 21 -15 30 0 10 -6 20
-12 23 -7 3 -3 4 9 4 12 -1 19 -5 17 -9 -3 -4 0 -8 5 -8 6 0 11 -9 11 -21 0
-15 5 -19 18 -16 9 3 35 8 57 12 63 10 71 14 71 35 0 13 -7 20 -21 20 -18 1
-18 2 5 15 34 20 34 20 50 -21 l14 -35 86 6 c222 15 221 15 218 39 -2 16 3 22
22 25 14 1 38 12 53 23 24 17 31 18 38 7 7 -11 0 -16 -26 -23 -27 -7 -34 -14
-31 -30 4 -28 13 -29 142 -21 99 6 115 9 113 24 -4 27 12 82 22 75 5 -3 6 -10
3 -16 -4 -6 1 -17 12 -25 16 -11 17 -17 6 -33 -12 -19 -9 -20 85 -20 54 0 148
3 209 6 99 6 111 9 107 24 -4 14 4 19 36 25 l41 7 1 51 c1 29 4 42 6 31 3 -16
14 -24 39 -29 l36 -6 -4 -50 -3 -49 240 1 c132 0 233 3 225 7 -8 4 -15 14 -15
22 0 9 -11 16 -27 18 -20 2 -28 9 -28 23 0 10 -6 19 -12 20 -7 0 -53 2 -103 5
-49 2 -125 1 -168 -4 -42 -4 -80 -6 -82 -3 -3 3 36 13 87 23 51 11 112 28 136
40 47 22 50 38 5 20 -15 -6 -83 -14 -150 -18 -100 -5 -123 -4 -124 7 -1 8 -5
3 -9 -11 l-8 -25 -1 29 c-1 24 -3 27 -16 16 -10 -8 -19 -9 -24 -4 -10 11 -31
214 -31 296 0 69 -24 118 -59 118 -22 0 -23 -1 -7 -25 21 -33 21 -35 -12 -35
-21 0 -31 7 -39 28 l-11 27 -1 -26 c-1 -19 -8 -29 -25 -33 -13 -3 -26 -16 -30
-28 -5 -20 -114 -199 -161 -266 -16 -22 -18 -22 -31 -5 -14 17 -14 16 -4 -5
12 -24 3 -53 -10 -33 -4 7 -17 13 -28 14 -12 1 -22 4 -22 8 0 4 -9 9 -21 12
-12 3 -18 10 -14 16 3 7 0 8 -9 5 -19 -7 -21 -21 -3 -27 7 -2 8 -8 3 -13 -5
-5 -11 -4 -13 3 -2 7 -12 9 -21 6 -9 -4 6 18 33 48 73 80 106 119 139 164 16
22 43 55 59 73 24 25 27 32 14 32 -9 0 -18 8 -18 18 -1 15 -2 15 -6 1 -2 -10
-19 -19 -41 -23 -24 -3 -49 -17 -67 -37 -79 -83 -384 -297 -405 -284 -6 4 -9
1 -8 -7 2 -7 -5 -12 -14 -12 -10 1 -16 -3 -15 -10 1 -6 -6 -10 -15 -10 -10 1
-16 -2 -13 -6 2 -4 -14 -17 -37 -30 -23 -13 -38 -18 -34 -11 4 6 3 11 -3 11
-5 0 -17 3 -27 7 -12 4 -15 3 -10 -5 4 -7 -3 -14 -18 -18 -25 -6 -30 -22 -11
-37 6 -5 4 -7 -4 -5 -24 7 -23 66 1 79 11 6 26 8 34 5 8 -3 13 0 11 7 -1 7 8
11 23 9 16 -1 21 1 12 6 -9 6 0 14 30 27 24 11 55 28 70 38 15 11 31 16 39 12
7 -5 10 -4 6 2 -3 5 11 19 31 31 20 11 102 64 182 118 80 53 150 97 157 97 7
0 11 5 10 11 -1 6 6 10 16 10 21 -2 21 0 1 31 -8 13 -19 44 -22 70 l-7 45 -52
-35 c-29 -20 -53 -33 -53 -30 0 2 25 21 55 41 48 32 55 41 55 70 0 48 28 101
61 114 34 14 49 7 49 -25 0 -17 -4 -23 -14 -19 -16 6 -46 -21 -46 -42 0 -20 6
-18 46 12 22 17 34 35 34 50 0 19 5 24 26 24 14 0 62 23 107 50 45 28 87 50
95 50 10 0 12 6 7 18 -15 35 -17 63 -5 77 15 18 61 20 78 3z m2432 -14 c-12
-31 -42 -73 -53 -74 -4 0 -1 13 8 30 8 16 15 36 15 44 0 13 13 23 32 25 4 1 3
-11 -2 -25z m138 -12 c2 -12 -1 -22 -7 -22 -6 0 -11 7 -11 15 0 8 -4 15 -10
15 -5 0 -10 5 -10 11 0 20 35 4 38 -19z m-4588 -3 c-14 -4 -37 -7 -51 -8 -15
-1 -40 -8 -55 -16 -35 -18 -52 -18 -84 0 -23 13 -24 14 -6 21 10 4 32 2 49 -4
16 -6 35 -8 41 -5 6 4 0 10 -14 14 -14 4 13 7 60 6 53 0 76 -3 60 -8z m-217
-23 c3 -8 16 -16 29 -18 18 -2 8 -10 -46 -35 -67 -32 -69 -33 -97 -16 -23 14
-39 33 -26 33 1 0 29 11 62 25 71 29 71 29 78 11z m4190 2 c9 9 17 14 17 11 0
-3 -9 -14 -19 -23 -19 -17 -20 -17 -31 6 -10 20 -9 21 3 6 13 -16 15 -16 30 0z
m60 -51 c8 -6 7 -7 -3 -4 -9 2 -16 17 -16 38 -2 31 -1 31 3 4 3 -16 10 -34 16
-38z m478 -12 c-49 -89 -104 -192 -159 -296 l-40 -77 21 -31 c26 -36 27 -37
57 -11 l23 20 -24 19 c-13 11 -19 20 -13 21 6 0 17 -7 24 -15 7 -8 17 -15 22
-15 5 0 67 44 136 98 69 53 140 107 158 119 l31 22 11 -25 c11 -23 10 -24 -16
-19 -22 4 -49 -12 -157 -96 -71 -55 -146 -112 -165 -127 -47 -36 -54 -50 -51
-97 1 -22 -2 -52 -8 -67 -9 -24 -7 -28 24 -47 l35 -20 15 29 c20 39 20 94 0
87 -8 -4 -17 -2 -20 3 -4 6 4 10 16 10 19 0 21 4 16 33 -3 17 -8 40 -12 50 -4
9 -3 17 3 17 5 0 15 -23 22 -50 9 -39 16 -50 29 -46 9 3 75 7 146 11 72 3 142
8 158 11 15 3 27 1 27 -4 0 -10 -45 -15 -252 -28 l-96 -6 -7 -37 c-3 -20 -13
-46 -21 -59 -18 -28 -15 -34 43 -68 110 -64 277 -178 267 -181 -6 -2 -80 42
-165 99 -85 56 -162 102 -171 102 -9 0 -15 3 -12 7 2 4 -10 17 -27 30 -26 18
-33 19 -40 8 -5 -8 -7 -22 -5 -31 2 -10 -1 -15 -9 -11 -8 3 -15 -5 -18 -19 -4
-21 -4 -20 -6 5 0 15 3 27 7 27 18 0 46 83 46 134 -1 57 -30 125 -65 150 l-21
14 22 4 c18 2 44 45 132 216 60 116 114 212 120 212 5 0 -9 -34 -31 -75z m206
28 c-3 -10 -5 -2 -5 17 0 19 2 27 5 18 2 -10 2 -26 0 -35z m-5048 -55 c25 -3
24 -4 -21 -35 -53 -37 -150 -130 -194 -185 l-29 -37 -52 32 c-29 18 -52 34
-52 37 1 12 136 120 216 173 82 54 88 57 97 38 5 -11 20 -21 35 -23z m5011 15
c8 -16 23 -41 33 -56 28 -42 17 -54 -47 -54 -73 0 -116 37 -116 101 0 29 10
34 71 35 40 1 47 -2 59 -26z m-453 -170 c-3 -10 -5 -4 -5 12 0 17 2 24 5 18 2
-7 2 -21 0 -30z m-5807 7 c0 -5 -4 -10 -10 -10 -5 0 -10 5 -10 10 0 6 5 10 10
10 6 0 10 -4 10 -10z m6370 -95 c15 -31 28 -125 19 -130 -10 -7 -48 33 -60 63
-14 36 -11 72 6 72 9 0 15 10 16 28 1 19 3 22 6 7 2 -11 8 -29 13 -40z m-5445
15 c16 -16 39 -30 52 -30 13 0 23 -3 23 -6 0 -3 -19 -38 -42 -77 -23 -40 -48
-88 -54 -107 -8 -21 -18 -33 -26 -31 -7 2 -44 13 -83 24 -81 24 -82 24 -69 37
7 7 25 5 53 -5 52 -18 61 -19 61 -4 0 6 9 23 20 39 15 21 26 26 47 23 19 -2
11 4 -26 22 -29 14 -57 25 -62 25 -4 0 -11 5 -14 11 -11 17 27 39 58 33 17 -3
27 -1 27 6 0 6 -6 10 -12 9 -36 -4 -39 2 -16 30 13 17 26 30 29 30 3 1 18 -12
34 -29z m1754 -24 c-15 -13 -49 -25 -49 -17 0 5 8 12 18 14 24 6 36 8 31 3z
m-59 -32 c0 -1 -22 -18 -48 -37 -27 -19 -78 -62 -114 -96 -45 -41 -71 -59 -82
-55 -9 3 -14 10 -11 15 3 4 13 5 22 2 12 -5 14 -3 8 7 -6 10 -4 12 7 7 9 -3
21 0 27 6 17 17 13 27 -6 20 -16 -6 -16 -5 -4 11 8 10 17 13 20 7 4 -7 12 -6
21 0 12 8 12 12 2 16 -9 3 -1 16 24 39 29 25 44 32 63 27 19 -5 23 -3 18 10
-3 9 -1 17 5 19 11 4 48 5 48 2z m2970 -20 c0 -2 -9 0 -20 6 -11 6 -20 13 -20
16 0 2 9 0 20 -6 11 -6 20 -13 20 -16z m50 -30 c0 -2 -9 0 -20 6 -11 6 -20 13
-20 16 0 2 9 0 20 -6 11 -6 20 -13 20 -16z m50 -30 c0 -2 -9 0 -20 6 -11 6
-20 13 -20 16 0 2 9 0 20 -6 11 -6 20 -13 20 -16z m-628 -179 c4 17 10 48 13
69 4 22 12 48 19 58 11 15 14 -24 20 -221 8 -250 6 -261 -35 -302 -16 -16 -24
-49 -22 -97 7 -150 9 -622 3 -607 -5 11 -9 44 -9 73 -1 42 -8 64 -34 105 -40
62 -59 97 -54 97 2 0 21 -28 42 -62 21 -34 41 -56 43 -49 7 21 -9 261 -18 256
-4 -2 -5 -17 -3 -32 4 -24 3 -25 -7 -10 -19 30 -111 249 -107 254 3 2 25 -1
50 -8 82 -20 80 -28 80 344 0 184 3 275 6 212 4 -73 8 -100 13 -80z m682 148
c-25 -32 -29 -47 -29 -99 0 -37 6 -68 14 -78 8 -9 11 -19 8 -22 -12 -12 -37
57 -37 101 0 50 10 77 43 113 32 35 32 26 1 -15z m103 13 c-12 -9 -14 -16 -8
-21 6 -3 11 -14 11 -24 0 -14 -9 -20 -35 -23 -28 -3 -34 -1 -30 10 5 12 3 13
-10 2 -12 -10 -19 -10 -27 -2 -17 17 18 52 51 52 14 0 33 5 41 10 23 15 28 11
7 -4z m-3754 -55 c4 -4 -3 -7 -15 -5 -13 1 -29 3 -36 3 -7 1 -10 6 -7 11 7 11
43 5 58 -9z m-96 3 c-3 -3 -12 -4 -19 -1 -8 3 -5 6 6 6 11 1 17 -2 13 -5z
m833 1 c0 -2 -10 -9 -22 -15 -22 -11 -22 -10 -4 4 21 17 26 19 26 11z m-906
-13 c3 -5 -1 -9 -9 -9 -8 0 -12 4 -9 9 3 4 7 8 9 8 2 0 6 -4 9 -8z m211 -12
c3 -6 -1 -17 -9 -26 -9 -8 -16 -19 -16 -23 0 -5 -10 -8 -22 -8 -17 0 -23 5
-23 21 0 18 5 21 23 18 15 -3 22 0 22 12 0 18 15 22 25 6z m645 -4 c0 -2 -52
-37 -115 -77 -63 -40 -115 -75 -115 -78 0 -4 9 -12 21 -19 14 -9 39 -11 82 -6
78 8 72 -2 -8 -14 -53 -9 -63 -7 -89 11 l-29 20 -48 -27 c-27 -15 -49 -25 -49
-22 0 2 18 15 40 27 21 12 37 26 34 31 -3 4 3 8 14 8 10 0 72 34 138 75 125
78 124 77 124 71z m2973 -16 c-3 -11 -9 -20 -14 -20 -14 0 -11 28 4 33 6 3 13
6 14 6 0 1 -1 -8 -4 -19z m117 -11 c0 -5 -7 -9 -15 -9 -15 0 -20 12 -9 23 8 8
24 -1 24 -14z m-4995 -28 c-10 -36 -13 -54 -14 -68 -1 -7 -6 -13 -12 -13 -5 0
-7 5 -3 11 5 8 -18 10 -77 8 -51 -3 -85 0 -87 6 -1 6 22 11 52 13 52 3 55 4
69 41 14 34 18 37 47 33 28 -4 31 -7 25 -31z m1315 14 c-7 -8 -17 -15 -22 -15
-6 0 -5 7 2 15 7 8 17 15 22 15 6 0 5 -7 -2 -15z m2180 -31 c0 -3 -13 4 -30
16 -16 12 -30 24 -30 26 0 3 14 -4 30 -16 17 -12 30 -24 30 -26z m2022 24 c-7
-7 -12 -8 -12 -2 0 14 12 26 19 19 2 -3 -1 -11 -7 -17z m-4118 -3 c-10 -8 -23
-15 -28 -15 -6 0 -1 7 10 15 10 8 23 15 28 15 6 0 1 -7 -10 -15z m151 -20
c-22 -8 -49 -13 -60 -13 -11 0 -2 6 20 13 22 8 49 13 60 13 11 0 2 -6 -20 -13z
m3345 0 c0 -8 -4 -15 -10 -15 -5 0 -10 7 -10 15 0 8 5 15 10 15 6 0 10 -7 10
-15z m75 6 c3 -5 1 -12 -5 -16 -5 -3 -10 1 -10 9 0 18 6 21 15 7z m725 -19 c0
-9 -5 -24 -10 -32 -7 -11 -10 -5 -10 23 0 23 4 36 10 32 6 -3 10 -14 10 -23z
m-760 -12 c0 -5 -4 -10 -10 -10 -5 0 -10 5 -10 10 0 6 5 10 10 10 6 0 10 -4
10 -10z m-3335 -14 c17 -1 45 3 64 7 19 4 31 4 27 0 -4 -5 -29 -13 -54 -19
-37 -8 -53 -7 -74 3 -30 15 -39 30 -10 17 9 -4 31 -8 47 -8z m2315 -226 c8 -6
-12 4 -45 22 -77 41 -323 196 -330 208 -5 8 331 -198 375 -230z m1087 193 c-3
-10 -5 -4 -5 12 0 17 2 24 5 18 2 -7 2 -21 0 -30z m-3657 7 c-13 -8 -12 -10 3
-10 9 0 17 -4 17 -10 0 -14 -16 -12 -29 3 -11 14 -5 27 13 27 6 0 4 -5 -4 -10z
m3551 -81 c-16 -46 -30 -76 -30 -66 -1 10 8 46 20 80 23 67 29 80 35 74 2 -2
-9 -41 -25 -88z m626 69 c-3 -8 -6 -5 -6 6 -1 11 2 17 5 13 3 -3 4 -12 1 -19z
m-5563 6 c9 -3 16 -14 16 -23 0 -13 -2 -13 -9 -2 -7 11 -9 11 -14 0 -4 -10 -6
-9 -6 3 -1 9 -9 19 -18 21 -16 4 -16 5 -1 6 9 0 23 -2 32 -5z m3456 -76 c0 -5
-7 -3 -15 4 -30 27 -45 38 -50 38 -18 -1 -22 2 -22 14 0 10 14 5 44 -16 24
-17 43 -35 43 -40z m1566 25 c-10 -10 -19 5 -10 18 6 11 8 11 12 0 2 -7 1 -15
-2 -18z m-3686 2 c7 -8 8 -15 2 -15 -5 0 -15 7 -22 15 -7 8 -8 15 -2 15 5 0
15 -7 22 -15z m-1370 3 c1 -2 3 -37 7 -78 l5 -75 -151 1 c-83 0 -151 4 -150 8
0 5 -3 12 -8 15 -5 3 -16 22 -26 41 -9 19 -17 29 -17 22 0 -7 -5 -10 -11 -7
-20 13 25 33 101 44 124 19 250 33 250 29z m328 -14 c36 -3 62 -10 62 -17 0
-24 -33 -96 -41 -91 -5 3 -9 1 -9 -5 0 -5 6 -12 13 -15 6 -3 3 -4 -8 -3 -13 2
-19 10 -18 22 1 19 1 19 -11 3 -10 -14 -29 -18 -82 -19 -38 0 -93 -4 -121 -8
l-53 -7 0 72 0 73 38 3 c42 3 138 0 230 -8z m4817 -37 c8 -20 13 -37 10 -37
-5 0 -35 67 -35 78 0 11 10 -5 25 -41z m-3823 15 c-7 -2 -9 -9 -6 -15 5 -8 2
-8 -7 1 -18 16 -32 15 -26 -2 4 -11 1 -13 -10 -9 -11 4 -14 2 -9 -5 8 -14 5
-15 -19 -5 -14 5 -10 10 20 29 21 12 45 20 53 16 11 -4 12 -7 4 -10z m-794
-13 c76 -25 119 -45 141 -66 12 -12 12 -14 0 -12 -8 1 -23 -2 -33 -6 -13 -6
-23 -3 -31 9 -8 11 -21 15 -36 12 -13 -3 -54 -8 -91 -10 -66 -5 -68 -5 -68 19
0 34 20 75 37 75 8 0 44 -10 81 -21z m1092 16 c0 -2 -10 -9 -22 -15 -22 -11
-22 -10 -4 4 21 17 26 19 26 11z m217 -1 c-3 -3 -12 -4 -19 -1 -8 3 -5 6 6 6
11 1 17 -2 13 -5z m3170 -16 c-3 -8 -6 -5 -6 6 -1 11 2 17 5 13 3 -3 4 -12 1
-19z m-2767 8 c0 -2 -8 -10 -17 -17 -16 -13 -17 -12 -4 4 13 16 21 21 21 13z
m1276 -18 c-9 -5 -13 -14 -10 -20 4 -6 3 -8 -4 -5 -8 6 -9 25 -3 44 1 1 8 0
17 -4 15 -5 15 -7 0 -15z m-3882 -20 c32 -78 33 -76 -36 -66 -34 4 -70 5 -81
2 -14 -4 -17 -3 -12 6 6 9 3 9 -13 1 -11 -6 -30 -11 -41 -11 -12 0 -21 -5 -21
-11 0 -8 -4 -8 -14 0 -15 13 -32 -1 -21 -18 3 -5 -8 -9 -25 -9 -16 1 -30 4
-30 8 0 13 23 28 35 23 8 -2 18 4 24 15 11 20 85 54 168 77 26 7 49 14 51 14
2 1 9 -14 16 -31z m1580 -3 c-7 -17 -20 -20 -28 -6 -4 5 0 12 6 14 23 9 28 7
22 -8z m336 10 c0 -2 -13 -11 -30 -20 -38 -19 -40 -11 -2 9 31 17 32 18 32 11z
m3457 -27 c-3 -8 -6 -5 -6 6 -1 11 2 17 5 13 3 -3 4 -12 1 -19z m716 -35 c-14
-56 -42 -118 -43 -98 0 6 9 36 20 68 11 31 20 63 20 72 0 8 4 15 9 15 5 0 2
-26 -6 -57z m937 11 c30 -21 79 -57 108 -82 48 -40 62 -46 134 -58 44 -7 81
-14 83 -16 1 -2 6 -22 10 -44 6 -37 4 -42 -16 -47 -17 -5 -20 -9 -12 -19 6 -7
11 -47 11 -88 1 -53 -2 -68 -8 -50 l-8 25 -1 -26 c-1 -22 -5 -26 -31 -25 -23
1 -29 5 -24 16 13 28 17 83 7 77 -10 -6 -28 -78 -26 -104 0 -7 -4 -10 -9 -7
-5 3 -7 18 -4 33 3 14 3 20 -1 12 -5 -11 -7 -11 -15 0 -8 11 -9 10 -4 -3 6
-20 -39 -71 -57 -65 -7 2 -16 -14 -22 -36 -6 -22 -17 -43 -24 -45 -11 -4 -12
1 -6 19 14 45 17 97 6 104 -6 3 -11 3 -10 -2 1 -4 0 -12 -1 -18 -1 -5 -1 -25
0 -44 1 -21 -2 -31 -9 -27 -5 4 -8 13 -5 20 5 12 -2 12 -38 3 -24 -6 -96 -11
-161 -11 -65 -1 -108 -3 -95 -6 31 -8 34 -39 11 -102 -20 -57 -53 -88 -94 -88
-31 0 -66 32 -76 68 -7 28 40 101 75 117 12 5 22 13 22 17 0 11 -8 10 -31 -2
-11 -7 -19 -7 -19 -1 0 12 -112 36 -210 44 -14 1 -29 5 -35 8 -5 4 -20 5 -32
4 -16 -1 -23 4 -23 15 0 9 -7 17 -15 17 -9 0 -15 -9 -15 -22 0 -19 -4 -21 -26
-17 -15 3 -29 13 -31 23 -3 11 -9 19 -14 19 -5 0 -10 8 -10 18 -1 14 -2 14 -6
-2 -5 -18 -6 -18 -20 5 -11 19 -13 20 -8 4 4 -16 0 -21 -15 -22 -11 -1 -20 -1
-20 0 0 1 7 24 15 51 11 35 12 53 4 62 -16 19 7 54 35 54 13 0 37 3 53 6 28 6
30 4 40 -42 6 -26 9 -64 8 -83 l-4 -36 13 35 c10 27 18 34 35 32 18 -1 22 3
21 20 -6 67 -1 78 30 78 32 0 31 2 34 -87 1 -29 5 -33 43 -42 23 -6 44 -11 46
-11 3 0 7 29 9 65 2 35 7 67 11 71 3 4 18 -1 32 -10 22 -15 25 -23 25 -81 0
-64 0 -65 28 -65 15 0 37 -3 49 -6 20 -5 21 -2 25 56 l3 63 -42 28 c-22 16
-55 42 -71 59 -30 30 -57 25 -31 -6 6 -8 9 -17 6 -20 -3 -4 -67 -3 -142 1
l-136 7 3 42 c3 40 4 41 48 48 25 3 99 7 164 8 l120 2 55 38 c63 43 197 110
221 110 8 0 40 -16 70 -36z m-5490 15 c12 -8 10 -9 -9 -4 -16 5 -21 4 -17 -4
5 -8 -3 -10 -26 -9 -24 2 -32 -1 -30 -11 2 -8 -3 -11 -11 -8 -8 3 -19 1 -25
-5 -8 -8 -16 -7 -28 3 -13 11 -18 11 -21 1 -3 -6 -9 -10 -14 -6 -5 3 -9 0 -9
-5 0 -14 -37 -14 -45 -1 -3 6 -13 10 -21 10 -8 0 -13 -4 -10 -8 2 -4 -4 -13
-14 -20 -14 -9 -19 -8 -24 3 -3 8 -12 15 -20 15 -9 0 -13 -6 -10 -13 6 -17
-57 -19 -68 -3 -6 8 -10 8 -15 0 -10 -14 -63 -21 -81 -11 -26 17 -10 28 36 26
26 0 92 4 147 11 135 15 150 18 220 34 78 18 77 17 95 5z m3750 1 c0 -5 -4
-10 -10 -10 -5 0 -10 5 -10 10 0 6 5 10 10 10 6 0 10 -4 10 -10z m154 -11 c-3
-5 -10 -7 -15 -3 -5 3 -7 10 -3 15 3 5 10 7 15 3 5 -3 7 -10 3 -15z m-3348 -8
c0 -15 -4 -17 -13 -10 -8 7 -18 7 -32 0 -11 -6 -23 -11 -28 -11 -8 1 57 39 67
40 3 0 6 -9 6 -19z m78 -15 c-10 -8 -21 -12 -23 -10 -3 2 4 11 15 18 10 8 21
12 23 10 3 -2 -4 -11 -15 -18z m3127 -7 c-5 -13 -10 -19 -10 -12 -1 15 10 45
15 40 3 -2 0 -15 -5 -28z m86 -106 c-2 -27 -3 -5 -3 47 0 52 1 74 3 48 2 -27
2 -69 0 -95z m-1227 101 c0 -2 -9 0 -20 6 -11 6 -20 13 -20 16 0 2 9 0 20 -6
11 -6 20 -13 20 -16z m1404 0 c3 -8 2 -12 -4 -9 -6 3 -10 10 -10 16 0 14 7 11
14 -7z m-5144 -8 c0 -3 -4 -8 -10 -11 -5 -3 -10 -1 -10 4 0 6 5 11 10 11 6 0
10 -2 10 -4z m4000 -22 c0 -2 -9 0 -20 6 -11 6 -20 13 -20 16 0 2 9 0 20 -6
11 -6 20 -13 20 -16z m-82 -51 c6 -3 12 -13 12 -22 0 -13 -7 -17 -27 -14 -20
3 -32 -2 -40 -15 -11 -19 -7 -21 78 -42 l91 -23 -6 -111 c-3 -61 -6 -127 -6
-146 0 -26 -3 -31 -10 -20 -5 8 -24 15 -42 16 -18 1 -33 3 -33 4 0 1 -8 3 -17
5 -23 4 -27 -11 -18 -80 10 -78 19 -204 13 -188 -3 10 -9 9 -21 -3 -14 -15
-17 -15 -30 2 -13 18 -14 17 -8 -8 4 -16 4 -28 2 -28 -3 0 -50 138 -106 308
-68 207 -108 313 -122 324 -24 21 -18 68 9 68 9 0 13 -3 10 -6 -3 -4 -2 -15 3
-25 7 -12 6 -20 -2 -25 -18 -11 22 -22 108 -30 60 -5 75 -4 69 5 -4 8 2 21 14
32 12 11 19 25 15 30 -3 6 -11 3 -19 -8 -11 -14 -17 -15 -39 -5 -17 7 -24 17
-20 27 3 8 11 12 17 8 6 -4 8 0 4 10 -5 13 4 12 51 -9 31 -14 63 -28 70 -31z
m-4258 37 c0 -5 -4 -10 -10 -10 -5 0 -10 5 -10 10 0 6 5 10 10 10 6 0 10 -4
10 -10z m5519 -30 c11 -24 11 -24 -3 -6 -9 11 -16 24 -16 30 0 12 5 7 19 -24z
m-139 0 c0 -5 -5 -10 -11 -10 -5 0 -7 5 -4 10 3 6 8 10 11 10 2 0 4 -4 4 -10z
m257 -256 c-5 -5 -107 212 -106 223 0 4 25 -43 55 -106 30 -62 53 -115 51
-117z m-4086 137 c-17 -34 -33 -61 -36 -61 -3 0 10 29 27 65 18 35 34 63 36
61 2 -2 -11 -31 -27 -65z m69 43 c0 -13 8 -15 43 -9 23 3 50 9 59 11 14 4 12
-9 -15 -83 -17 -48 -35 -89 -39 -91 -4 -2 -8 -13 -9 -25 -1 -20 -2 -20 -8 3
-5 16 -13 24 -24 22 -9 -2 -17 2 -17 9 0 8 -5 7 -17 -2 -13 -11 -17 -11 -20
-1 -3 6 -8 10 -13 7 -9 -6 -8 -1 15 103 11 47 22 72 31 72 8 0 14 -7 14 -16z
m2784 0 c13 -5 12 -9 -5 -27 -21 -23 -44 -12 -33 16 7 18 14 20 38 11z m731
-34 c3 -5 1 -10 -4 -10 -6 0 -11 5 -11 10 0 6 2 10 4 10 3 0 8 -4 11 -10z
m260 -10 c3 -5 1 -10 -4 -10 -6 0 -11 5 -11 10 0 6 2 10 4 10 3 0 8 -4 11 -10z
m621 -36 c-7 -28 -56 -98 -63 -91 -9 10 50 117 65 117 2 0 1 -12 -2 -26z
m-4516 -54 c-6 -11 -13 -20 -16 -20 -2 0 0 9 6 20 6 11 13 20 16 20 2 0 0 -9
-6 -20z m3438 -8 c9 -6 10 -15 3 -33 l-10 -24 0 27 c-1 21 -5 26 -18 21 -11
-4 -14 -3 -9 5 8 14 16 15 34 4z m-194 -132 l41 -45 -45 41 c-39 36 -48 40
-68 31 -29 -13 -35 -6 -22 28 8 22 7 31 -5 45 -8 9 -15 20 -15 23 0 4 17 -12
37 -35 20 -24 55 -63 77 -88z m-3187 78 c-3 -8 -6 -5 -6 6 -1 11 2 17 5 13 3
-3 4 -12 1 -19z m3621 -22 c50 -33 159 -75 204 -77 13 -1 -6 -5 -42 -10 -35
-4 -66 -6 -69 -4 -2 3 5 5 17 5 12 0 22 5 22 10 0 6 -6 10 -14 10 -23 0 -152
68 -172 92 -22 24 -17 22 54 -26z m-3691 -62 c-3 -4 -66 14 -75 22 -2 1 7 17
20 34 l23 32 18 -42 c10 -23 17 -44 14 -46z m3137 -106 c3 -103 7 -191 8 -195
3 -12 -24 -63 -34 -63 -7 0 -11 38 -10 95 1 17 0 17 -4 3 -7 -25 -23 -23 -17
2 3 11 9 20 14 20 5 0 9 5 9 11 0 5 -4 7 -10 4 -5 -3 -10 -1 -10 4 0 6 5 11
10 11 7 0 7 6 2 18 -19 35 -22 89 -8 157 14 70 33 131 40 124 2 -2 6 -88 10
-191z m409 158 c9 -7 17 -18 17 -24 0 -6 3 -12 8 -15 4 -2 2 -2 -5 -1 -6 2
-15 -10 -18 -26 -8 -36 -21 -46 -39 -30 -10 8 -15 8 -18 0 -2 -6 -18 2 -36 19
-22 22 -32 40 -32 61 0 30 1 30 53 30 28 0 60 -7 70 -14z m130 -44 c29 -11 61
-22 72 -25 11 -4 2 -4 -19 -1 -62 9 -126 42 -118 62 6 16 7 16 10 0 2 -10 25
-25 55 -36z m556 1 c-1 -17 -3 -21 -6 -10 -5 20 -8 20 -34 7 -10 -6 -19 -8
-19 -6 0 4 48 34 58 36 1 0 1 -12 1 -27z m-834 -3 c16 -17 16 -20 3 -15 -9 4
-19 13 -22 21 -7 19 -2 18 19 -6z m215 -2 c0 -17 -18 -44 -24 -37 -8 7 5 49
15 49 5 0 9 -6 9 -12z m330 -8 c0 -5 -4 -10 -10 -10 -5 0 -10 5 -10 10 0 6 5
10 10 10 6 0 10 -4 10 -10z m95 -4 c-11 -7 -31 -16 -45 -20 -19 -5 -16 -2 10
13 40 23 65 28 35 7z m79 -1 c-5 -12 -2 -13 16 -7 26 10 70 4 70 -9 0 -18 39
-30 61 -18 20 10 21 9 15 -17 -7 -29 -42 -74 -57 -74 -5 0 -6 7 -3 15 4 8 1
15 -5 15 -7 0 -14 -7 -17 -15 -8 -21 -21 -19 -29 5 -4 11 -11 18 -16 14 -6 -3
-8 -12 -5 -20 9 -25 -10 -15 -35 17 -34 44 -42 69 -24 75 8 4 15 12 15 20 0 8
4 14 10 14 5 0 7 -7 4 -15z m552 -41 c-12 -30 -25 -13 -13 19 8 23 12 27 15
14 2 -10 1 -25 -2 -33z m154 19 c0 -20 -17 -50 -24 -43 -2 3 -2 17 1 33 6 30
23 37 23 10z m-4940 -17 c0 -2 -8 -10 -17 -17 -16 -13 -17 -12 -4 4 13 16 21
21 21 13z m5843 -16 c-6 -22 -23 -38 -23 -21 0 17 12 41 20 41 5 0 6 -9 3 -20z
m-2398 -10 c10 -11 16 -20 13 -20 -3 0 -13 9 -23 20 -10 11 -16 20 -13 20 3 0
13 -9 23 -20z m-3475 -14 c0 -2 -8 -10 -17 -17 -16 -13 -17 -12 -4 4 13 16 21
21 21 13z m5190 -64 c0 -12 5 -31 11 -41 16 -24 4 -67 -26 -95 -14 -13 -25
-28 -25 -35 0 -6 -4 -11 -10 -11 -5 0 -10 7 -10 15 0 8 -6 15 -14 15 -24 0
-56 34 -62 65 -12 69 14 120 73 140 36 12 39 12 50 -8 7 -12 12 -32 13 -45z
m-374 -20 c-12 -12 -18 8 -10 35 l8 28 4 -28 c2 -16 1 -31 -2 -35z m-4066 13
c0 -5 -5 -3 -10 5 -5 8 -10 20 -10 25 0 6 5 3 10 -5 5 -8 10 -19 10 -25z
m4206 -13 c-20 -20 -22 -1 -4 31 11 20 12 21 16 3 2 -10 -3 -26 -12 -34z m750
-20 c-19 -19 -21 -5 -4 35 11 28 12 28 16 4 2 -13 -3 -31 -12 -39z m169 26
c-10 -31 -25 -47 -25 -26 0 24 11 48 22 48 5 0 6 -10 3 -22z m-5575 -28 c-6
-11 -13 -20 -16 -20 -2 0 0 9 6 20 6 11 13 20 16 20 2 0 0 -9 -6 -20z m-441
-50 c-29 -33 -55 -60 -59 -60 -4 0 18 27 48 60 30 33 57 60 59 60 3 0 -19 -27
-48 -60z m3784 25 c4 3 5 2 2 -2 -3 -3 1 -13 7 -22 7 -9 -2 -3 -20 13 -18 17
-32 32 -32 34 0 3 8 -2 18 -11 10 -10 22 -15 25 -12z m-5176 -17 c-3 -7 -5 -2
-5 12 0 14 2 19 5 13 2 -7 2 -19 0 -25z m1792 -25 c-43 -71 -141 -218 -153
-228 -6 -5 -27 -31 -46 -57 -19 -26 -38 -48 -42 -48 -4 0 32 53 80 118 48 64
107 147 131 185 46 70 69 94 30 30z m3861 17 c0 -5 -4 -10 -10 -10 -5 0 -10 5
-10 10 0 6 5 10 10 10 6 0 10 -4 10 -10z m710 -28 c0 -5 -7 -17 -15 -28 -15
-19 -20 -8 -9 20 6 17 24 22 24 8z m136 -18 c-3 -9 -6 -18 -6 -20 0 -2 -4 -4
-9 -4 -5 0 -7 9 -4 20 3 11 10 20 15 20 6 0 7 -7 4 -16z m754 -12 c0 -5 -10
-17 -22 -28 -12 -10 -19 -14 -16 -9 3 6 8 18 11 28 6 17 27 24 27 9z m150 -13
c-7 -11 -14 -19 -16 -16 -7 7 7 37 17 37 6 0 5 -9 -1 -21z m-2633 -51 c-2 -13
-4 -3 -4 22 0 25 2 35 4 23 2 -13 2 -33 0 -45z m-357 22 c0 -5 -5 -10 -11 -10
-5 0 -7 5 -4 10 3 6 8 10 11 10 2 0 4 -4 4 -10z m984 -40 c26 0 61 7 77 16 40
20 192 17 184 -4 -3 -7 -5 -17 -5 -20 0 -6 -172 -6 -360 0 l-65 2 54 3 53 4
-18 22 c-19 22 -18 22 7 0 19 -17 38 -23 73 -23z m-3831 23 c-40 -2 -107 -2
-150 0 -43 1 -10 3 72 3 83 0 118 -2 78 -3z m4281 -15 c16 -22 36 -23 36 -3 0
13 32 15 225 15 195 0 224 -2 219 -15 -4 -8 -18 -15 -34 -15 -16 0 -30 -4 -32
-9 -2 -6 -120 -7 -290 -4 l-288 6 0 22 c0 22 4 23 76 21 59 -1 78 -5 88 -18z
m-681 -15 c-23 -2 -64 -2 -90 0 -26 2 -7 3 42 3 50 0 71 -1 48 -3z m1195 -21
c2 -7 -3 -12 -12 -12 -9 0 -16 7 -16 16 0 17 22 14 28 -4z m-828 -115 c20 -18
31 -29 26 -24 -18 13 -37 8 -82 -23 -49 -35 -52 -31 -32 47 l11 46 -39 35
c-35 31 -33 30 21 -7 33 -23 76 -56 95 -74z m-649 43 c52 -67 84 -114 72 -107
-12 8 -83 100 -109 142 -22 36 -10 25 37 -35z m2519 12 c0 -4 -21 -6 -47 -4
-83 5 -90 9 -20 11 37 0 67 -2 67 -7z m-621 -12 c60 -17 98 -65 115 -142 l6
-28 263 0 c244 0 321 -8 273 -26 -10 -4 -136 -4 -281 -1 l-262 7 -9 -31 c-5
-17 -12 -29 -16 -27 -4 2 -14 -6 -23 -17 -10 -14 -9 -6 5 25 11 25 20 50 20
57 0 13 -131 23 -141 10 -3 -4 -4 28 -1 73 2 44 1 80 -3 80 -4 0 -22 -7 -41
-16 -63 -30 -93 -113 -74 -200 8 -35 7 -37 -5 -20 -8 10 -12 23 -9 27 3 5 0 9
-5 9 -16 0 -14 95 3 133 17 41 45 65 93 83 47 16 50 16 92 4z m478 4 c-3 -3
-12 -4 -19 -1 -8 3 -5 6 6 6 11 1 17 -2 13 -5z m-1652 -104 c10 -11 16 -20 13
-20 -3 0 -13 9 -23 20 -10 11 -16 20 -13 20 3 0 13 -9 23 -20z m1104 -43 c1
-4 -15 5 -34 20 -19 15 -35 32 -35 36 0 11 68 -45 69 -56z m-5244 14 c8 -14
-44 -51 -71 -51 -22 0 -23 2 -12 20 7 11 24 24 38 29 33 12 38 13 45 2z m1105
-16 c0 -26 -25 -45 -59 -45 -48 0 0 64 52 69 4 1 7 -10 7 -24z m1558 9 c28
-19 30 -54 3 -54 -37 0 -51 12 -51 41 0 33 14 37 48 13z m970 -4 c17 -11 32
-24 32 -30 0 -17 -36 -11 -64 11 -49 39 -25 54 32 19z m672 -17 l25 -25 -34 6
c-39 7 -61 22 -61 43 0 21 39 7 70 -24z m-89 0 c13 -16 12 -17 -3 -4 -17 13
-22 21 -14 21 2 0 10 -8 17 -17z m-666 -13 c10 -11 16 -20 13 -20 -3 0 -13 9
-23 20 -10 11 -16 20 -13 20 3 0 13 -9 23 -20z m1499 -1 c-7 -12 -71 -12 -78
0 -8 13 10 17 50 13 19 -2 31 -8 28 -13z m-6031 -6 c-29 -2 -77 -2 -105 0 -29
2 -6 3 52 3 58 0 81 -1 53 -3z m6303 -35 l29 -33 -32 29 c-18 17 -33 31 -33
33 0 8 8 1 36 -29z m-1967 -105 c-1 -93 -3 -108 -10 -73 -13 76 -9 190 7 190
2 0 3 -53 3 -117z m-1198 -57 c47 -39 80 -74 101 -111 4 -6 -7 -11 -25 -11
-18 -1 -99 -7 -182 -14 -106 -9 -217 -11 -380 -5 -126 4 -247 8 -269 9 l-38 1
53 47 54 48 -48 0 c-31 0 -46 4 -42 10 4 6 35 10 70 9 49 -1 71 3 91 17 62 44
61 44 315 44 l247 0 53 -44z m-614 28 c-3 -3 -12 -4 -19 -1 -8 3 -5 6 6 6 11
1 17 -2 13 -5z m1573 -304 c-74 -22 -76 -22 -67 -14 11 11 82 33 107 33 14 0
-4 -9 -40 -19z"/>
<path d="M5845 3219 c-4 -6 -5 -13 -2 -16 7 -7 27 6 27 18 0 12 -17 12 -25 -2z"/>
<path d="M5860 3190 c-8 -5 -11 -12 -7 -16 4 -4 13 -2 19 4 15 15 7 24 -12 12z"/>
<path d="M5670 3160 c0 -5 5 -10 10 -10 6 0 10 5 10 10 0 6 -4 10 -10 10 -5 0
-10 -4 -10 -10z"/>
<path d="M5711 3154 c0 -11 3 -14 6 -6 3 7 2 16 -1 19 -3 4 -6 -2 -5 -13z"/>
<path d="M5740 3100 c0 -6 -5 -8 -12 -4 -7 5 -8 3 -3 -6 6 -10 4 -12 -11 -6
-14 5 -16 4 -7 -5 9 -9 16 -8 33 4 13 9 17 17 11 22 -6 3 -11 1 -11 -5z"/>
<path d="M5650 3089 c0 -5 9 -9 20 -9 11 0 20 2 20 4 0 2 -9 6 -20 9 -11 3
-20 1 -20 -4z"/>
<path d="M5641 3044 c0 -11 3 -14 6 -6 3 7 2 16 -1 19 -3 4 -6 -2 -5 -13z"/>
<path d="M5700 3052 c0 -15 11 -21 27 -15 12 5 12 7 1 14 -17 11 -28 11 -28 1z"/>
<path d="M5680 2940 c-9 -6 -10 -10 -3 -10 6 0 15 5 18 10 8 12 4 12 -15 0z"/>
<path d="M5562 2910 c0 -14 2 -19 5 -12 2 6 2 18 0 25 -3 6 -5 1 -5 -13z"/>
<path d="M5421 3034 c0 -11 3 -14 6 -6 3 7 2 16 -1 19 -3 4 -6 -2 -5 -13z"/>
<path d="M7056 2325 c-28 -21 -14 -65 22 -66 15 -1 41 -3 58 -5 29 -3 31 -2
26 23 -5 25 -6 25 -18 8 -13 -18 -14 -17 -14 8 0 23 -4 27 -31 27 -17 0 -28 4
-24 10 8 13 4 12 -19 -5z"/>
<path d="M7150 2226 c4 -4 16 -4 26 2 16 9 14 10 -8 9 -15 -1 -23 -6 -18 -11z"/>
<path d="M7161 2136 c-15 -16 -35 -26 -53 -26 -26 0 -28 -3 -28 -40 0 -27 4
-40 14 -40 7 0 34 -3 60 -6 l46 -7 -1 34 c0 19 -3 51 -7 72 l-7 39 -24 -26z"/>
<path d="M5952 2299 c-28 -70 -58 -257 -43 -272 5 -4 20 -5 34 -2 23 6 26 13
32 75 6 55 4 73 -10 93 -26 40 -17 71 21 75 34 3 55 38 29 48 -19 8 -35 -3
-36 -24 -1 -10 -4 -7 -9 8 l-7 25 -11 -26z"/>
<path d="M6040 2315 c0 -2 9 -9 20 -15 16 -9 20 -8 20 5 0 8 -9 15 -20 15 -11
0 -20 -2 -20 -5z"/>
<path d="M6035 2289 c-10 -15 0 -21 27 -17 l23 3 -22 13 c-15 8 -24 9 -28 1z"/>
<path d="M5915 1992 c-6 -7 -7 -47 0 -54 12 -11 55 5 55 21 0 16 -44 43 -55
33z"/>
<path d="M5987 1960 c3 -11 9 -20 14 -20 5 0 9 9 9 20 0 11 -6 20 -14 20 -9 0
-12 -7 -9 -20z"/>
<path d="M5950 1829 c0 -6 -7 -8 -16 -5 -13 5 -15 2 -10 -16 3 -13 6 -30 6
-38 1 -32 15 -42 44 -29 23 11 26 17 21 38 -7 28 -45 70 -45 50z"/>
<path d="M5960 1673 c1 -18 17 -31 48 -35 33 -5 36 -1 26 26 -6 16 -74 24 -74
9z"/>
<path d="M6059 1536 l-27 -23 40 -52 c33 -43 42 -50 58 -41 10 5 20 13 22 17
3 5 3 2 2 -4 -2 -7 6 -13 16 -13 17 0 14 8 -22 53 -24 30 -47 61 -53 70 -9 15
-13 14 -36 -7z"/>
<path d="M6145 1391 c-2 -4 12 -23 31 -42 l35 -34 -3 34 c-2 28 -8 36 -30 42
-16 4 -30 4 -33 0z"/>
<path d="M4024 2396 c-7 -7 -13 -34 -15 -59 -4 -43 -2 -47 18 -47 21 0 23 4
23 60 0 60 -5 70 -26 46z"/>
<path d="M4100 2370 c0 -19 3 -21 12 -12 9 9 9 15 0 24 -9 9 -12 7 -12 -12z"/>
<path d="M3902 2340 l-53 -35 5 -49 c8 -73 23 -82 69 -41 37 32 38 34 35 97
l-3 64 -53 -36z"/>
<path d="M4030 2149 c0 -5 5 -7 10 -4 6 3 10 8 10 11 0 2 -4 4 -10 4 -5 0 -10
-5 -10 -11z"/>
<path d="M4315 2150 c3 -5 11 -10 16 -10 6 0 7 5 4 10 -3 6 -11 10 -16 10 -6
0 -7 -4 -4 -10z"/>
<path d="M3330 1795 c0 -7 30 -13 34 -7 3 4 -4 9 -15 9 -10 1 -19 0 -19 -2z"/>
<path d="M3315 1770 c-3 -6 1 -7 9 -4 18 7 21 14 7 14 -6 0 -13 -4 -16 -10z"/>
<path d="M5076 1755 c10 -8 24 -14 29 -14 6 0 1 6 -9 14 -11 8 -24 15 -30 15
-5 0 -1 -7 10 -15z"/>
<path d="M3282 1751 c-11 -7 -10 -9 3 -15 15 -5 55 8 55 20 0 2 -9 0 -19 -6
-25 -13 -34 -13 -26 0 7 12 4 12 -13 1z"/>
<path d="M3200 1730 c0 -5 7 -10 16 -10 8 0 12 5 9 10 -3 6 -10 10 -16 10 -5
0 -9 -4 -9 -10z"/>
<path d="M3582 950 c0 -19 2 -27 5 -17 2 9 2 25 0 35 -3 9 -5 1 -5 -18z"/>
<path d="M4961 914 c0 -11 3 -14 6 -6 3 7 2 16 -1 19 -3 4 -6 -2 -5 -13z"/>
<path d="M1930 2552 c0 -12 23 -32 37 -32 22 0 15 16 -12 28 -14 6 -25 8 -25
4z"/>
<path d="M1782 2450 c7 -11 22 -20 34 -20 35 0 36 13 3 27 -43 18 -51 16 -37
-7z"/>
<path d="M1678 2367 c21 -22 62 -34 62 -18 0 7 -64 41 -77 41 -4 0 3 -10 15
-23z"/>
<path d="M1520 2255 c-7 -9 -10 -18 -6 -22 3 -3 6 -1 6 6 0 7 4 10 9 6 5 -3
12 -1 15 4 11 17 -11 21 -24 6z"/>
<path d="M1495 2200 c3 -5 8 -10 11 -10 2 0 4 5 4 10 0 6 -5 10 -11 10 -5 0
-7 -4 -4 -10z"/>
<path d="M1550 2199 c0 -6 -7 -9 -15 -5 -8 3 -15 1 -15 -4 0 -6 9 -10 20 -10
11 0 20 7 20 15 0 8 -2 15 -5 15 -3 0 -5 -5 -5 -11z"/>
<path d="M3150 2140 c0 -5 4 -10 9 -10 6 0 13 5 16 10 3 6 -1 10 -9 10 -9 0
-16 -4 -16 -10z"/>
<path d="M3126 2123 c-6 -14 -5 -15 5 -6 7 7 10 15 7 18 -3 3 -9 -2 -12 -12z"/>
<path d="M7964 1660 c-72 -36 -153 -100 -153 -120 0 -21 75 -78 155 -118 l66
-34 60 23 c57 21 168 87 168 99 0 30 -183 180 -220 180 -9 0 -43 -13 -76 -30z
m126 -45 c0 -8 5 -16 10 -16 6 -1 16 -2 23 -3 11 -1 12 -50 0 -68 -6 -12 -33
-10 -33 2 0 6 8 10 18 10 13 0 14 2 3 9 -7 5 -30 7 -50 5 -116 -13 -131 -12
-146 2 -17 17 -18 24 -7 40 6 11 40 20 52 14 3 -1 19 -3 35 -5 17 -1 40 -5 53
-9 18 -6 22 -4 22 13 0 12 5 21 10 21 6 0 10 -7 10 -15z m-110 -109 c8 1 17 3
20 4 3 1 17 4 31 5 23 3 26 0 22 -18 -4 -18 -3 -19 6 -6 6 9 25 16 46 17 31 1
35 -2 35 -22 0 -24 -13 -28 -37 -13 -6 4 -14 4 -17 -1 -2 -4 -22 -9 -44 -10
-28 -2 -41 2 -45 13 -4 8 -12 15 -19 15 -9 0 -8 -3 2 -10 8 -5 12 -10 8 -11
-14 -3 -23 -6 -41 -13 -23 -11 -49 11 -45 38 3 22 50 40 58 22 3 -6 12 -10 20
-10z"/>
<path d="M7924 1589 c-11 -19 13 -34 31 -19 13 11 13 15 3 21 -18 12 -26 11
-34 -2z"/>
<path d="M8001 1574 c0 -11 3 -14 6 -6 3 7 2 16 -1 19 -3 4 -6 -2 -5 -13z"/>
<path d="M7920 1491 c0 -27 15 -34 31 -15 10 13 10 17 -2 25 -22 13 -29 11
-29 -10z"/>
<path d="M8275 1450 c-9 -10 -14 -34 -13 -61 l1 -44 6 50 c6 47 8 50 34 50 15
-1 27 5 27 11 0 18 -38 13 -55 -6z"/>
<path d="M8301 1424 c0 -11 3 -14 6 -6 3 7 2 16 -1 19 -3 4 -6 -2 -5 -13z"/>
<path d="M7860 1426 c0 -3 9 -10 20 -16 11 -6 20 -8 20 -6 0 3 -9 10 -20 16
-11 6 -20 8 -20 6z"/>
<path d="M8140 1384 c-40 -17 -49 -29 -43 -55 6 -20 28 -25 38 -9 4 6 12 10
18 9 28 -3 38 2 35 19 -2 9 -7 20 -13 24 -6 5 -5 8 3 8 6 0 12 5 12 10 0 13
-8 12 -50 -6z"/>
<path d="M7920 1350 c0 -25 5 -41 13 -41 6 -1 29 -3 50 -4 35 -2 37 -1 37 28
0 17 -3 28 -6 24 -4 -3 -24 3 -45 13 -21 11 -41 20 -44 20 -3 0 -5 -18 -5 -40z"/>
<path d="M8195 1319 c-11 -17 1 -21 15 -4 8 9 8 15 2 15 -6 0 -14 -5 -17 -11z"/>
<path d="M8391 1304 c0 -11 3 -14 6 -6 3 7 2 16 -1 19 -3 4 -6 -2 -5 -13z"/>
<path d="M5371 974 c0 -11 3 -14 6 -6 3 7 2 16 -1 19 -3 4 -6 -2 -5 -13z"/>
<path d="M2815 1379 c-4 -6 -5 -12 -2 -15 2 -3 7 2 10 11 7 17 1 20 -8 4z"/>
<path d="M7710 691 c0 -34 3 -61 8 -61 4 1 20 19 35 41 16 23 31 39 34 36 3
-3 -9 -23 -26 -44 -17 -21 -31 -41 -31 -45 0 -5 25 -8 55 -8 60 0 62 3 41 54
-14 34 -54 68 -93 80 -22 7 -23 5 -23 -53z"/>
<path d="M1903 1570 c-28 -11 -30 -24 -3 -15 11 4 20 2 20 -4 0 -13 67 -15 75
-2 5 9 -10 16 -55 26 -8 2 -25 0 -37 -5z"/>
<path d="M1093 1563 c9 -2 23 -2 30 0 6 3 -1 5 -18 5 -16 0 -22 -2 -12 -5z"/>
<path d="M1888 1533 c7 -3 16 -2 19 1 4 3 -2 6 -13 5 -11 0 -14 -3 -6 -6z"/>
<path d="M1413 1503 c4 -7 -5 -10 -24 -9 -41 1 -49 -21 -13 -34 22 -9 29 -8
36 5 5 9 23 15 43 15 19 0 37 5 40 10 3 6 0 10 -8 10 -8 0 -29 3 -47 7 -22 4
-31 3 -27 -4z"/>
<path d="M1510 1499 c0 -10 28 -19 56 -19 13 0 24 -4 24 -10 0 -15 23 -12 46
5 16 13 17 16 4 25 -16 11 -130 9 -130 -1z"/>
<path d="M1088 1453 c7 -3 16 -2 19 1 4 3 -2 6 -13 5 -11 0 -14 -3 -6 -6z"/>
<path d="M1496 1211 c-4 -5 3 -7 14 -4 23 6 26 13 6 13 -8 0 -17 -4 -20 -9z"/>
<path d="M1333 1080 c2 -24 21 -21 25 3 2 10 -3 17 -12 17 -9 0 -14 -8 -13
-20z"/>
<path d="M1070 1035 c0 -19 4 -35 9 -35 5 0 9 16 8 35 -3 46 -17 46 -17 0z"/>
<path d="M1378 1044 c-10 -9 43 -104 57 -104 21 0 19 16 -7 61 -20 36 -40 53
-50 43z"/>
<path d="M1493 985 c0 -27 2 -38 4 -22 2 15 2 37 0 50 -2 12 -4 0 -4 -28z"/>
<path d="M1680 977 c0 -8 -7 -18 -16 -21 -8 -3 -12 -10 -9 -16 3 -5 1 -10 -4
-10 -20 0 -11 -18 11 -24 20 -5 21 -7 6 -18 -23 -18 -34 -106 -14 -114 10 -4
13 -15 9 -38 -4 -27 0 -37 26 -61 29 -28 33 -29 122 -26 68 2 94 -1 101 -11 8
-10 11 -10 15 0 2 6 8 10 11 8 4 -2 25 0 47 5 l40 8 -37 -2 c-31 -2 -35 0 -28
14 5 9 21 24 35 33 14 9 25 26 25 39 0 12 4 28 9 36 14 22 -37 73 -66 66 -47
-11 -93 -46 -93 -71 0 -25 -7 -28 -34 -18 -24 9 -19 34 11 66 24 25 25 28 7
28 -11 0 -28 -10 -38 -22 -17 -19 -19 -20 -28 -4 -13 23 -3 44 24 56 17 6 4 9
-50 9 -47 1 -71 5 -67 11 4 6 29 10 57 9 45 -2 67 8 68 32 0 8 -71 38 -108 45
-25 5 -32 3 -32 -9z m27 -144 c-3 -10 -5 -2 -5 17 0 19 2 27 5 18 2 -10 2 -26
0 -35z"/>
<path d="M1800 981 c0 -10 30 -24 37 -17 3 3 2 9 -2 15 -8 13 -35 15 -35 2z"/>
<path d="M7530 880 c0 -5 7 -10 16 -10 8 0 12 5 9 10 -3 6 -10 10 -16 10 -5 0
-9 -4 -9 -10z"/>
<path d="M2056 774 c-9 -22 -8 -24 9 -24 8 0 15 9 15 20 0 24 -15 27 -24 4z"/>
<path d="M1445 720 c-18 -20 -17 -20 31 -20 27 0 56 5 64 10 11 8 7 9 -15 4
-20 -4 -26 -3 -17 4 11 7 10 10 -3 16 -27 10 -41 7 -60 -14z"/>
<path d="M1540 670 c0 -5 7 -10 15 -10 8 0 15 5 15 10 0 6 -7 10 -15 10 -8 0
-15 -4 -15 -10z"/>
<path d="M1640 670 c-13 -8 -12 -10 3 -10 9 0 17 5 17 10 0 12 -1 12 -20 0z"/>
</g>
</svg>
